<svg width="24" height="23" viewBox="0 0 24 23" fill="none" xmlns="http://www.w3.org/2000/svg">
<path fill-rule="evenodd" clip-rule="evenodd" d="M23.6399 5.29997C23.5199 4.20997 23.5699 2.02997 22.7199 1.42997C20.8099 0.0699682 16.7199 0.429968 13.9099 0.339968C10.4299 0.219968 6.69994 0.499968 3.28994 0.589968C3.2411 0.581499 3.191 0.58381 3.14315 0.596741C3.0953 0.609671 3.05086 0.632907 3.01293 0.664822C2.97501 0.696737 2.94452 0.736558 2.9236 0.781496C2.90268 0.826433 2.89185 0.875401 2.89185 0.924968C2.89185 0.974535 2.90268 1.0235 2.9236 1.06844C2.94452 1.11338 2.97501 1.1532 3.01293 1.18511C3.05086 1.21703 3.0953 1.24027 3.14315 1.2532C3.191 1.26613 3.2411 1.26844 3.28994 1.25997C6.74994 1.25997 10.3599 0.999968 13.8699 1.17997C16.2999 1.30997 20.5399 1.04997 22.1299 2.17997C22.5099 2.45997 22.5199 4.63997 22.5999 5.37997C22.9381 8.06806 22.9616 10.7864 22.6699 13.48C22.6213 14.3735 22.4737 15.2589 22.2299 16.12C19.8299 17.34 2.51994 18.36 1.47994 16.68C1.09851 15.3278 0.883582 13.9342 0.839941 12.53C0.697732 8.9058 0.898627 5.2763 1.43994 1.68997C1.72994 1.41997 1.31994 0.979968 1.03994 1.24997C0.609941 1.63997 0.689941 2.87997 0.619941 3.31997C0.053973 6.68182 -0.120524 10.0979 0.0999409 13.5C0.147576 14.7474 0.35253 15.9839 0.709941 17.18C1.54994 18.59 7.05994 18.64 8.70994 18.65C8.04879 19.5036 7.73128 20.5739 7.81994 21.65L5.65994 21.8C5.58038 21.8 5.50407 21.8316 5.44781 21.8878C5.39155 21.9441 5.35994 22.0204 5.35994 22.1C5.35994 22.1795 5.39155 22.2558 5.44781 22.3121C5.50407 22.3684 5.58038 22.4 5.65994 22.4C7.65994 22.47 9.17994 22.67 11.6599 22.65C14.1399 22.63 15.7199 22.42 17.7299 22.27C17.7788 22.2784 17.8289 22.2761 17.8767 22.2632C17.9246 22.2503 17.969 22.227 18.007 22.1951C18.0449 22.1632 18.0754 22.1234 18.0963 22.0784C18.1172 22.0335 18.128 21.9845 18.128 21.935C18.128 21.8854 18.1172 21.8364 18.0963 21.7915C18.0754 21.7466 18.0449 21.7067 18.007 21.6748C17.969 21.6429 17.9246 21.6197 17.8767 21.6067C17.8289 21.5938 17.7788 21.5915 17.7299 21.6H15.8899C15.7675 20.4943 15.4276 19.4238 14.8899 18.45C17.1622 18.3271 19.4219 18.0329 21.6499 17.57C23.0999 17.2 23.3599 16.83 23.5499 15.76C24.1283 12.2996 24.1587 8.76978 23.6399 5.29997ZM15.1199 21.6C12.2699 21.53 10.8699 21.51 8.56994 21.6C8.72994 21.21 8.96994 20.69 9.07994 20.31C9.22264 19.7686 9.32294 19.2169 9.37994 18.66C9.37994 18.54 9.64994 18.74 14.0599 18.47C14.1489 19.5849 14.5131 20.6604 15.1199 21.6Z" fill="#003366"/>
</svg>
